{"scene":0,"scenes":[{"nodes":[0]}],"asset":{"version":"2.0","generator":"https://github.com/mikedh/trimesh"},"accessors":[{"componentType":5125,"type":"SCALAR","bufferView":0,"count":120000,"max":[19997],"min":[0]},{"componentType":5126,"type":"VEC3","byteOffset":0,"bufferView":1,"count":19998,"max":[0.569962203502655,0.9950503706932068,0.3343019187450409],"min":[-0.5756327509880066,-1.0000989437103271,-0.3341622054576874]}],"meshes":[{"name":"tmphdn2va6b.ply","extras":{"processed":true},"primitives":[{"attributes":{"POSITION":1},"indices":0,"mode":4}]}],"nodes":[{"name":"world","children":[1]},{"name":"tmphdn2va6b.ply","mesh":0}],"buffers":[{"uri":"gltf_buffer_0.bin","byteLength":480000},{"uri":"gltf_buffer_1.bin","byteLength":239976}],"bufferViews":[{"buffer":0,"byteOffset":0,"byteLength":480000},{"buffer":1,"byteOffset":0,"byteLength":239976}]}