{"scene":0,"scenes":[{"nodes":[0]}],"asset":{"version":"2.0","generator":"https://github.com/mikedh/trimesh"},"accessors":[{"componentType":5125,"type":"SCALAR","bufferView":0,"count":120000,"max":[24437],"min":[0]},{"componentType":5126,"type":"VEC3","byteOffset":0,"bufferView":1,"count":24438,"max":[0.569962203502655,0.9950503706932068,0.3343019187450409],"min":[-0.5756327509880066,-1.0000989437103271,-0.3341622054576874]},{"componentType":5126,"type":"VEC2","byteOffset":0,"bufferView":3,"count":24438,"max":[0.9995715618133545,1.0],"min":[0.0,0.00042623281478881836]}],"meshes":[{"name":"tmphdn2va6b.ply","extras":{"processed":true},"primitives":[{"attributes":{"POSITION":1,"TEXCOORD_0":2},"indices":0,"mode":4,"material":0}]}],"images":[{"bufferView":2,"mimeType":"image/png"}],"textures":[{"source":0}],"materials":[{"pbrMetallicRoughness":{"baseColorTexture":{"index":0},"baseColorFactor":[1.0,1.0,1.0,1.0],"roughnessFactor":0.9036020036098448},"doubleSided":false}],"nodes":[{"name":"world","children":[1]},{"name":"tmphdn2va6b.ply","mesh":0}],"buffers":[{"uri":"gltf_buffer_0.bin","byteLength":480000},{"uri":"gltf_buffer_1.bin","byteLength":293256},{"uri":"gltf_buffer_2.bin","byteLength":760532},{"uri":"gltf_buffer_3.bin","byteLength":195504}],"bufferViews":[{"buffer":0,"byteOffset":0,"byteLength":480000},{"buffer":1,"byteOffset":0,"byteLength":293256},{"buffer":2,"byteOffset":0,"byteLength":760532},{"buffer":3,"byteOffset":0,"byteLength":195504}]}